<svg width="30" height="30" viewBox="0 0 30 30" fill="none" xmlns="http://www.w3.org/2000/svg">
<path d="M0 2C0 0.89543 0.895431 0 2 0H28C29.1046 0 30 0.895431 30 2V28C30 29.1046 29.1046 30 28 30H2C0.89543 30 0 29.1046 0 28V2Z" fill="#18191D"/>
<path d="M0 2C0 0.89543 0.895431 0 2 0H28C29.1046 0 30 0.895431 30 2V28C30 29.1046 29.1046 30 28 30H2C0.89543 30 0 29.1046 0 28V2Z" fill="url(#paint0_linear_764_490)" fill-opacity="0.2"/>
<path d="M5.25684 14.7227L5.375 14.8398L5.52148 14.9863H5.51465L5.51758 14.9834L5.25684 14.7227ZM5.25684 14.7227L4.93262 14.3984L5.16406 14.6289L5.25684 14.7227ZM14.5029 24.3496C14.4239 24.4503 14.3653 24.5656 14.3301 24.6885L14.335 24.6514L14.2432 24.5312L14.5635 24.2803C14.5424 24.3025 14.5219 24.3254 14.5029 24.3496ZM17.9043 22.2852C17.724 22.3949 17.5396 22.5059 17.3525 22.6172C17.5396 22.5056 17.7242 22.3948 17.9043 22.2852ZM21.2822 16.0469C21.5591 16.9186 21.6986 17.6234 21.6562 18.2578C21.6946 17.6206 21.5498 16.8954 21.2822 16.0469ZM21.1514 15.6494C21.1753 15.7193 21.1973 15.7886 21.2197 15.8564C21.1883 15.7611 21.1562 15.6639 21.1221 15.5654L21.1104 15.5312L21.0967 15.5049C21.0961 15.4997 21.0956 15.4926 21.0947 15.4844L21.1514 15.6494ZM25.3047 14.9873H20.9834V14.9863H25.3047V14.9873ZM21.0957 14.4844C21.0962 14.4797 21.0973 14.4758 21.0977 14.4727V14.4707L21.1055 14.4551L21.0957 14.4844ZM21.4824 13.2217C21.4633 13.2984 21.4438 13.3766 21.4219 13.4561C21.4434 13.3768 21.4636 13.2987 21.4824 13.2217ZM21.6016 11.3057C21.71 11.8315 21.6734 12.3947 21.5225 13.0576C21.6695 12.3985 21.709 11.8216 21.6016 11.3057ZM21.5107 10.9697C21.5296 11.0244 21.5463 11.0795 21.5615 11.1348L21.5996 11.293C21.5999 11.2945 21.6003 11.2963 21.6006 11.2979C21.5772 11.186 21.547 11.0768 21.5107 10.9697ZM14.7979 5.87305V5.87402C16.4691 6.83106 18.4984 7.98489 19.6836 8.84668H19.6846C19.9911 9.06898 20.2569 9.28685 20.4863 9.50195C20.2565 9.28891 19.9905 9.07349 19.6846 8.85156H19.6855C18.5429 8.02043 16.4458 6.822 14.7979 5.87891L14.7871 5.87305C14.7757 5.86561 14.7636 5.85581 14.7432 5.83984C14.7611 5.85146 14.7792 5.86259 14.7979 5.87305ZM14.3291 5.28125C14.3642 5.40471 14.4236 5.51996 14.5029 5.62109C14.5369 5.66441 14.5748 5.70437 14.6152 5.74121L14.2412 5.44629L14.335 5.32324L14.3291 5.28125ZM7.51562 14.9863L6.66309 14.1328L6.5127 13.9824L7.37109 14.8398L7.51758 14.9863H7.51562ZM8.51465 14.9863L8.66016 14.7432L14.2109 5.48828L14.2119 5.4873C14.2124 5.48643 14.2127 5.48488 14.2139 5.4834L14.2178 5.47656L13.9463 5.93066L8.96777 14.2324L8.51465 14.9902L8.65723 15.2285L8.51074 14.9863H8.51465Z" fill="white" stroke="white"/>
<defs>
<linearGradient id="paint0_linear_764_490" x1="15" y1="30" x2="0.30216" y2="12.0044" gradientUnits="userSpaceOnUse">
<stop stop-color="#131417"/>
<stop offset="1" stop-color="#C20E1C"/>
</linearGradient>
</defs>
</svg>
