<svg width="19" height="15" viewBox="0 0 19 15" fill="none" xmlns="http://www.w3.org/2000/svg">
<rect width="19" height="15" fill="#1E1E1E"/>
<g clip-path="url(#clip0_226_2)">
<rect width="1100" height="3717" transform="translate(-809.07 -1416)" fill="#0F1013"/>
<rect x="-395.07" y="-77" width="600" height="600" rx="10" fill="#18191D"/>
<rect x="-395.07" y="-77" width="600" height="600" rx="10" fill="url(#paint0_linear_226_2)" fill-opacity="0.2"/>
<rect x="-8.07021" y="-8" width="168" height="348" rx="10" fill="#14090A"/>
<mask id="path-3-inside-1_226_2" fill="white">
<path d="M4.44741 13.7303L8.55265 15V5.40796C8.44082 7.17111 6.96715 8.56584 5.17766 8.56584H3.49345L3.98687 13.1711C4.01317 13.4277 4.1974 13.6513 4.44741 13.7303ZM9.86844 5.40796V15L13.9737 13.7303C14.2237 13.6513 14.4079 13.4277 14.4342 13.1711L14.9276 8.56584H13.2434C11.4539 8.56584 9.98027 7.17111 9.86844 5.40796Z"/>
</mask>
<path d="M4.44741 13.7303L8.55265 15V5.40796C8.44082 7.17111 6.96715 8.56584 5.17766 8.56584H3.49345L3.98687 13.1711C4.01317 13.4277 4.1974 13.6513 4.44741 13.7303ZM9.86844 5.40796V15L13.9737 13.7303C14.2237 13.6513 14.4079 13.4277 14.4342 13.1711L14.9276 8.56584H13.2434C11.4539 8.56584 9.98027 7.17111 9.86844 5.40796Z" stroke="#C20E1C" stroke-width="2" stroke-linejoin="round" mask="url(#path-3-inside-1_226_2)"/>
<mask id="path-4-inside-2_226_2" fill="white">
<path d="M1.52588e-05 6.5921C1.52588e-05 6.95393 0.296075 7.24999 0.657908 7.24999H5.17763C6.31577 7.24999 7.25001 6.3158 7.25001 5.17762V0.657893C7.25001 0.29606 6.95395 0 6.59212 0C2.95395 0 1.52588e-05 2.95393 1.52588e-05 6.5921ZM11.8289 0C11.4671 0 11.171 0.29606 11.171 0.657893V5.17762C11.171 6.3158 12.1053 7.24999 13.2434 7.24999H17.7631C18.125 7.24999 18.421 6.95393 18.421 6.5921C18.421 2.95393 15.4671 0 11.8289 0Z"/>
</mask>
<path d="M1.52588e-05 6.5921C1.52588e-05 6.95393 0.296075 7.24999 0.657908 7.24999H5.17763C6.31577 7.24999 7.25001 6.3158 7.25001 5.17762V0.657893C7.25001 0.29606 6.95395 0 6.59212 0C2.95395 0 1.52588e-05 2.95393 1.52588e-05 6.5921ZM11.8289 0C11.4671 0 11.171 0.29606 11.171 0.657893V5.17762C11.171 6.3158 12.1053 7.24999 13.2434 7.24999H17.7631C18.125 7.24999 18.421 6.95393 18.421 6.5921C18.421 2.95393 15.4671 0 11.8289 0Z" stroke="#C20E1C" stroke-width="2" stroke-linejoin="round" mask="url(#path-4-inside-2_226_2)"/>
</g>
<defs>
<linearGradient id="paint0_linear_226_2" x1="-466.351" y1="-77" x2="-253.176" y2="661.462" gradientUnits="userSpaceOnUse">
<stop stop-color="#131417"/>
<stop offset="1" stop-color="#C20E1C"/>
</linearGradient>
<clipPath id="clip0_226_2">
<rect width="1100" height="3717" fill="white" transform="translate(-809.07 -1416)"/>
</clipPath>
</defs>
</svg>
