<svg width="17" height="20" viewBox="0 0 17 20" fill="none" xmlns="http://www.w3.org/2000/svg">
<path d="M12.5137 5.4053C12.5928 5.8882 13.0108 6.2422 13.5 6.2422C13.9892 6.2422 14.4072 5.8882 14.4863 5.4053C14.5967 4.7388 15.1181 4.2173 15.7832 4.1079C16.2666 4.0283 16.6211 3.6108 16.6211 3.1211C16.6211 2.6314 16.2666 2.2139 15.7832 2.1343C15.1182 2.0249 14.5967 1.5034 14.4863 0.8369C14.4072 0.354 13.9893 0 13.5 0C13.0107 0 12.5928 0.354 12.5137 0.8369C12.4033 1.5034 11.8819 2.0249 11.2168 2.1343C10.7334 2.2139 10.3789 2.6314 10.3789 3.1211C10.3789 3.6108 10.7334 4.0283 11.2168 4.1079C11.8818 4.2173 12.4033 4.7388 12.5137 5.4053ZM13.5 3.0967C13.5078 3.105 13.5166 3.1128 13.5244 3.1211C13.5166 3.1294 13.5078 3.1372 13.5 3.1455C13.4922 3.1372 13.4834 3.1294 13.4756 3.1211C13.4834 3.1128 13.4922 3.105 13.5 3.0967ZM3.1631 8.1499C1.0645 8.6631 0 9.4946 0 10.6211V13.6211V16.6211C0 17.1455 0.2588 17.8994 1.4961 18.5171C2.8896 19.2085 5.3213 19.6211 8 19.6211C10.6787 19.6211 13.1104 19.2085 14.5059 18.5156C15.7412 17.8994 16 17.1455 16 16.6211V13.6211V10.6211C16 9.4946 14.9355 8.6631 12.8516 8.1533C11.5127 7.8052 9.835 7.6211 8 7.6211C6.165 7.6211 4.4873 7.8052 3.1631 8.1499ZM6.9948 13.5955C7.4857 13.6178 7.8506 13.6211 8 13.6211C8.1494 13.6211 8.5144 13.6179 9.0056 13.5955C10.1304 13.5522 11.1705 13.4364 12.0881 13.2539C12.512 13.1741 12.9292 13.0754 13.3307 12.957C13.3923 12.9389 13.4548 12.9211 13.5144 12.9024C13.6305 12.8657 13.7427 12.8265 13.8542 12.7859C13.9015 12.7688 13.9544 12.7534 14.0001 12.7359V13.4857C13.9798 13.5041 13.9405 13.5301 13.9068 13.5539C13.8817 13.5717 13.866 13.5861 13.8328 13.6064C13.7857 13.6351 13.7131 13.6695 13.6486 13.7023C13.603 13.7255 13.5697 13.7462 13.5147 13.7709C13.4321 13.808 13.3186 13.8482 13.2132 13.8876C13.1489 13.9116 13.1003 13.9344 13.027 13.959C12.8338 14.0236 12.6094 14.0893 12.3478 14.1533C11.1885 14.4551 9.6445 14.6211 8 14.6211C6.3555 14.6211 4.8115 14.4551 3.6377 14.1499C3.379 14.0865 3.1566 14.0212 2.965 13.9569C2.9063 13.9372 2.8687 13.919 2.8159 13.8996C2.6962 13.8556 2.5735 13.8111 2.4819 13.7698C2.4328 13.7476 2.4037 13.7292 2.3621 13.7083C2.2923 13.6731 2.2165 13.6366 2.1665 13.6061C2.1343 13.5864 2.1191 13.5724 2.0945 13.555C2.0602 13.5306 2.0206 13.5045 2 13.4857V12.7369C2.0526 12.7571 2.1131 12.7749 2.1678 12.7945C2.265 12.8295 2.3624 12.8636 2.463 12.8958C2.5377 12.9195 2.6162 12.9419 2.6943 12.9646C3.0894 13.08 3.4992 13.1766 3.9154 13.2548C4.8363 13.4371 5.8746 13.5524 6.9948 13.5955ZM14 16.4834C13.9443 16.5327 13.8301 16.6182 13.6152 16.7251C12.5176 17.2695 10.3135 17.6211 8 17.6211C5.6865 17.6211 3.4824 17.2695 2.3867 16.7266C2.1709 16.6187 2.0557 16.5327 2 16.4834V15.7368C2.0889 15.7709 2.1887 15.8017 2.2834 15.834C2.3467 15.8556 2.4069 15.8782 2.4727 15.8989C2.6855 15.966 2.9083 16.0301 3.1484 16.0888C4.4873 16.437 6.165 16.6211 8 16.6211C9.835 16.6211 11.5127 16.437 12.8369 16.0923C13.0793 16.0331 13.3043 15.9685 13.519 15.9008C13.5846 15.8801 13.6443 15.8577 13.7073 15.8362C13.8053 15.8029 13.9083 15.771 14 15.7358V16.4834ZM13.8068 10.6198C13.561 10.766 13.1126 10.9661 12.3476 11.1533C12.0817 11.2225 11.7909 11.2826 11.488 11.3371C11.4307 11.3472 11.3734 11.3572 11.3143 11.367C11.0663 11.4084 10.8051 11.4434 10.5381 11.475C10.4486 11.4856 10.364 11.4974 10.2713 11.507C9.9911 11.5359 9.7 11.5572 9.4048 11.5751C9.3264 11.5799 9.2552 11.5874 9.175 11.5913C8.7917 11.6105 8.3992 11.6211 8 11.6211C7.6005 11.6211 7.2076 11.6105 6.8238 11.5913C6.7474 11.5875 6.6798 11.5804 6.6051 11.5759C6.3044 11.5578 6.0079 11.5359 5.7223 11.5063C5.6362 11.4974 5.5573 11.4863 5.4739 11.4765C5.1974 11.444 4.9271 11.4078 4.6702 11.3645C4.6173 11.3557 4.5658 11.3467 4.5144 11.3376C4.2059 11.2822 3.9098 11.2207 3.6377 11.1499C2.8831 10.965 2.438 10.7659 2.1931 10.6199C2.4404 10.4744 2.8935 10.2744 3.6523 10.0888C4.8115 9.7871 6.3555 9.6211 8 9.6211C9.6445 9.6211 11.1885 9.7871 12.3623 10.0923C13.1113 10.2759 13.5605 10.4742 13.8068 10.6198Z" fill="#FF0000"/>
</svg>
